<svg width="24" height="24" viewBox="0 0 24 24" fill="none" xmlns="http://www.w3.org/2000/svg">
<path d="M10 20.7771C9.12989 20.5789 8.29407 20.2523 7.52002 19.8081M14 3.22314C15.9882 3.67722 17.7633 4.79284 19.0347 6.38735C20.3061 7.98187 20.9985 9.9608 20.9985 12.0001C20.9985 14.0395 20.3061 16.0184 19.0347 17.6129C17.7633 19.2075 15.9882 20.3231 14 20.7771M4.57902 17.0931C4.03412 16.3003 3.61986 15.4252 3.35202 14.5011M3.12402 10.5001C3.28402 9.55014 3.59202 8.65014 4.02402 7.82514L4.19302 7.52014M6.90702 4.57914C7.84322 3.93602 8.8927 3.47592 10 3.22314M12 9.00014L10 12.0001H14L12 15.0001" stroke="white" stroke-width="2" stroke-linecap="round" stroke-linejoin="round"/>
</svg>
